<?xml version="1.0" encoding="utf-8"?>
<!-- Generator: Adobe Illustrator 24.1.3, SVG Export Plug-In . SVG Version: 6.00 Build 0)  -->
<svg version="1.1" id="Layer_1" xmlns="http://www.w3.org/2000/svg" xmlns:xlink="http://www.w3.org/1999/xlink" x="0px" y="0px"
	 viewBox="0 0 121.24 132.75" style="enable-background:new 0 0 121.24 132.75;" xml:space="preserve">
<style type="text/css">
	.st0{fill:#C3C3C3;}
	.st1{fill:#FFFFFF;}
	.st2{fill:#585858;stroke:#585858;stroke-miterlimit:10;}
	.st3{fill:#C3C3C3;stroke:#C3C3C3;stroke-miterlimit:10;}
</style>
<g>
	<polygon class="st0" points="14.72,96.5 60.62,17 106.52,96.5 	"/>
	<path class="st1" d="M60.62,34L91.8,88H29.44L60.62,34 M60.62,0L0,105h121.24L60.62,0L60.62,0z"/>
</g>
<g>
	<polygon class="st0" points="15.09,41.25 106.15,41.25 60.62,116.35 	"/>
	<path class="st1" d="M91.06,49.75L60.62,99.96L30.19,49.75H91.06 M121.24,32.75H0l60.62,100L121.24,32.75L121.24,32.75z"/>
</g>
<polygon class="st2" points="54.62,54.13 64.62,54.13 60.62,64.13 70.62,64.13 58.62,84.13 60.62,70.13 50.62,70.13 "/>
<polygon class="st3" points="60.62,28.65 58.54,32.25 62.7,32.25 "/>
</svg>
